<svg width="118" height="105" viewBox="0 0 118 105" fill="none" xmlns="http://www.w3.org/2000/svg">
<g opacity="0.1">
<path d="M52.8646 21.0917C54.1308 21.0917 55.1572 20.0651 55.1572 18.7991V11.4629C55.1572 5.14225 50.0149 0 43.6943 0H12.0568C5.73612 0 0.593872 5.14225 0.593872 11.4629V38.9711C0.593872 45.2917 5.73612 50.4339 12.0568 50.4339H26.8879C26.3661 67.5609 19.8678 76.4643 7.0665 77.6289C5.8856 77.7365 4.98163 78.7264 4.98163 79.9121V102.707C4.98163 103.338 5.24115 103.94 5.69921 104.373C6.12609 104.777 6.68983 105 7.27398 105C7.31685 105 7.35995 104.999 7.40282 104.996C23.2005 104.108 35.2601 98.6709 43.247 88.8367C51.15 79.1056 55.1572 64.8866 55.1572 46.5741V38.3624C55.1572 37.0964 54.1308 36.0698 52.8646 36.0698C51.5984 36.0698 50.572 37.0964 50.572 38.3624V46.5741C50.572 80.1934 37.1524 97.7745 9.56702 100.243V81.9397C16.539 80.8553 21.9318 77.6099 25.6167 72.2739C29.5253 66.6133 31.5072 58.4942 31.5072 48.1414C31.5072 46.8754 30.4808 45.8488 29.2146 45.8488H12.0568C8.26437 45.8488 5.17902 42.7634 5.17902 38.9711V11.4629C5.17902 7.6705 8.26437 4.58515 12.0568 4.58515H43.6943C47.4867 4.58515 50.572 7.6705 50.572 11.4629V18.7991C50.572 20.0651 51.5984 21.0917 52.8646 21.0917Z" fill="white"/>
<path d="M106.511 0H74.8733C68.5526 0 63.4104 5.14225 63.4104 11.4629V38.9711C63.4104 45.2917 68.5526 50.4339 74.8733 50.4339H89.7044C89.1826 67.5609 82.6843 76.4643 69.883 77.6289C68.7024 77.7365 67.7982 78.7264 67.7982 79.9121V102.707C67.7982 103.338 68.0577 103.94 68.5157 104.373C68.9426 104.777 69.5064 105 70.0905 105C70.1334 105 70.1765 104.999 70.2194 104.996C86.017 104.108 98.0767 98.6709 106.064 88.8367C113.967 79.1058 117.974 64.8866 117.974 46.5741V11.4629C117.974 5.14225 112.831 0 106.511 0ZM113.389 46.5741C113.389 80.1934 99.969 97.7745 72.3833 100.243V81.9397C79.3555 80.8553 84.7483 77.6099 88.433 72.2739C92.3416 66.6136 94.3235 58.4944 94.3235 48.1414C94.3235 46.8754 93.2971 45.8488 92.0309 45.8488H74.8733C71.0809 45.8488 67.9956 42.7634 67.9956 38.9711V11.4629C67.9956 7.6705 71.0809 4.58515 74.8733 4.58515H102.384V21.558C102.384 22.824 103.411 23.8506 104.677 23.8506C105.943 23.8506 106.969 22.824 106.969 21.558V4.60212C110.549 4.83917 113.389 7.82479 113.389 11.4629V46.5741Z" fill="white"/>
<path d="M104.677 27.2241C103.411 27.2241 102.384 28.262 102.384 29.5279C102.384 30.7939 103.411 31.8205 104.677 31.8205C105.943 31.8205 106.969 30.7939 106.969 29.5279V29.5052C106.969 28.2393 105.943 27.2241 104.677 27.2241Z" fill="white"/>
<path d="M52.8646 26.2881C51.5984 26.2881 50.572 27.3147 50.572 28.5807V28.6286C50.572 29.8945 51.5984 30.9212 52.8646 30.9212C54.1308 30.9212 55.1572 29.8945 55.1572 28.6286V28.5807C55.1572 27.3147 54.1308 26.2881 52.8646 26.2881Z" fill="white"/>
</g>
</svg>
