<svg width="138" height="138" viewBox="0 0 138 138" fill="none" xmlns="http://www.w3.org/2000/svg">
<g filter="url(#filter0_d_1_69)">
<rect x="19" y="19" width="100" height="100" rx="5" fill="white"/>
</g>
<mask id="mask0_1_69" style="mask-type:alpha" maskUnits="userSpaceOnUse" x="30" y="39" width="78" height="60">
<rect x="30" y="39" width="78" height="60" rx="10" fill="white"/>
</mask>
<g mask="url(#mask0_1_69)">
<path d="M73.9304 89.3125L67.041 84.7198L67.8927 83.4427L73.9304 87.4681L79.968 83.4427L80.8198 84.7198L73.9304 89.3125Z" fill="#9E3040"/>
<path d="M89.1688 57.2376C86.2826 56.8186 83.4627 56.0268 80.7797 54.8824C78.3507 53.8519 76.051 52.5411 73.9266 50.9762C69.4359 54.2757 64.2058 56.4255 58.6928 57.2376L58.4702 55.7188C63.9206 54.9172 69.0788 52.7464 73.4623 49.4098L73.9304 49.0531L74.3909 49.4098C76.5392 51.0515 78.8854 52.4167 81.3748 53.4727C83.9357 54.5654 86.6281 55.3212 89.3838 55.7214L89.1688 57.2376Z" fill="#9E3040"/>
<path d="M79.3025 73.6612H76.2327V72.1263H79.3025C79.7263 72.1263 80.0699 71.7826 80.0699 71.3588C80.0699 70.935 79.7263 70.5914 79.3025 70.5914H77.7676C76.4961 70.5914 75.4653 69.5605 75.4653 68.289C75.4653 67.0172 76.4961 65.9867 77.7676 65.9867H80.8374V67.5216H77.7676C77.3438 67.5216 77.0002 67.8652 77.0002 68.289C77.0002 68.7129 77.3438 69.0565 77.7676 69.0565H79.3025C80.574 69.0565 81.6048 70.087 81.6048 71.3588C81.6048 72.6303 80.574 73.6612 79.3025 73.6612Z" fill="#9E3040"/>
<path d="M77.7676 64.4518H79.3025V66.7541H77.7676V64.4518Z" fill="#9E3040"/>
<path d="M77.7676 72.8938H79.3025V75.1961H77.7676V72.8938Z" fill="#9E3040"/>
<path d="M91.9586 52.9109C88.7281 52.6827 85.5586 51.9171 82.5803 50.6453C79.5993 49.3821 76.8499 47.6306 74.4453 45.4628L73.9304 45L73.4163 45.4605C68.5643 49.8141 62.4045 52.4343 55.9029 52.9094L54.7435 52.9862V58.3123H51.5654C51.1791 56.8152 49.7397 55.8394 48.2063 56.0343C46.6729 56.2291 45.5233 57.5336 45.5233 59.0797C45.5233 60.6255 46.6729 61.9303 48.2063 62.1248C49.7397 62.3196 51.1791 61.3438 51.5654 59.8472H64.4033L66.7056 62.1495H72.3955V65.9867H65.8063L63.5039 63.6844H44V65.2193H56.7288L63.6358 72.1263H72.3955V75.9635H59.709L56.577 72.2027C57.4236 70.8676 57.1425 69.1105 55.922 68.1054C54.7015 67.1004 52.9234 67.1615 51.7753 68.2486C50.6267 69.3353 50.4678 71.1074 51.4043 72.3811C52.3407 73.6552 54.0795 74.0322 55.4596 73.2606L57.7106 75.9635H44V77.4984H66.2998L63.5583 81.3356H53.1003C52.714 79.8386 51.2746 78.8628 49.7412 79.0577C48.2078 79.2525 47.0582 80.5569 47.0582 82.1031C47.0582 83.6488 48.2078 84.9536 49.7412 85.1481C51.2746 85.343 52.714 84.3672 53.1003 82.8705H60.4079C61.839 84.5613 63.4987 86.0449 65.3397 87.277L73.9304 93.0006L82.5211 87.2755C89.1466 82.8668 93.1244 75.4336 93.1165 67.4755V52.9907L91.9586 52.9109ZM48.6047 60.6146C47.757 60.6146 47.0698 59.9273 47.0698 59.0797C47.0698 58.2317 47.757 57.5448 48.6047 57.5448C49.4523 57.5448 50.1396 58.2317 50.1396 59.0797C50.1396 59.9273 49.4523 60.6146 48.6047 60.6146ZM53.9768 72.1263C53.1292 72.1263 52.4419 71.439 52.4419 70.5914C52.4419 69.7434 53.1292 69.0565 53.9768 69.0565C54.8244 69.0565 55.5117 69.7434 55.5117 70.5914C55.5117 71.439 54.8244 72.1263 53.9768 72.1263ZM50.1396 83.638C49.2919 83.638 48.6047 82.9507 48.6047 82.1031C48.6047 81.2551 49.2919 80.5682 50.1396 80.5682C50.9872 80.5682 51.6745 81.2551 51.6745 82.1031C51.6745 82.9507 50.9872 83.638 50.1396 83.638ZM64.2714 70.5914L58.8992 65.2193H62.8684L65.1707 67.5216H72.3955V70.5914H64.2714ZM91.5816 67.4755C91.5895 74.9206 87.8684 81.8752 81.67 85.9999L73.9304 91.1588L66.1922 86.0014C64.8387 85.0953 63.5871 84.0457 62.4595 82.8705H64.3489L68.1862 77.4984H72.3955V84.4054H73.9304V80.3685C78.7554 82.4812 84.3992 81.0497 87.6335 76.8921C90.8682 72.7345 90.8682 66.9123 87.6335 62.7547C84.3992 58.5974 78.7554 57.1656 73.9304 59.2783V55.2425H72.3955V60.6146H67.3411L65.0388 58.3123H56.2791V54.4218C62.7923 53.8882 68.9705 51.3093 73.9304 47.0546C76.3373 49.1295 79.0526 50.8173 81.9785 52.0573C85.0306 53.3602 88.2735 54.1588 91.5816 54.4218V67.4755ZM78.5351 78.2659C82.1385 78.2644 85.3435 75.9763 86.5153 72.5688C87.6871 69.1614 86.5666 65.386 83.7262 63.1691C80.8857 60.9519 76.9511 60.7821 73.9304 62.7464V60.9983C78.1281 58.7852 83.3039 59.8355 86.3069 63.5094C89.3104 67.1832 89.3104 72.4643 86.3069 76.1381C83.3039 79.812 78.1281 80.8624 73.9304 78.6496V76.9011C75.2993 77.7956 76.9001 78.2696 78.5351 78.2659ZM73.9304 74.9611V64.6864C76.6966 62.2005 80.9345 62.3511 83.5171 65.0274C86.0997 67.7034 86.0997 71.9442 83.5171 74.6201C80.9345 77.2964 76.6966 77.4471 73.9304 74.9611Z" fill="#9E3040"/>
</g>
<defs>
<filter id="filter0_d_1_69" x="0" y="0" width="138" height="138" filterUnits="userSpaceOnUse" color-interpolation-filters="sRGB">
<feFlood flood-opacity="0" result="BackgroundImageFix"/>
<feColorMatrix in="SourceAlpha" type="matrix" values="0 0 0 0 0 0 0 0 0 0 0 0 0 0 0 0 0 0 127 0" result="hardAlpha"/>
<feOffset/>
<feGaussianBlur stdDeviation="9.5"/>
<feColorMatrix type="matrix" values="0 0 0 0 0 0 0 0 0 0 0 0 0 0 0 0 0 0 0.19 0"/>
<feBlend mode="normal" in2="BackgroundImageFix" result="effect1_dropShadow_1_69"/>
<feBlend mode="normal" in="SourceGraphic" in2="effect1_dropShadow_1_69" result="shape"/>
</filter>
</defs>
</svg>
